<svg id="visual" viewBox="0 0 900 600" width="900" height="600" xmlns="http://www.w3.org/2000/svg" xmlns:xlink="http://www.w3.org/1999/xlink" version="1.1"><rect x="0" y="0" width="900" height="600" fill="#000000"></rect><path d="M0 443L129 428L257 379L386 428L514 441L643 417L771 385L900 366L900 601L771 601L643 601L514 601L386 601L257 601L129 601L0 601Z" fill="#a422d5"></path><path d="M0 473L129 452L257 425L386 403L514 478L643 442L771 471L900 452L900 601L771 601L643 601L514 601L386 601L257 601L129 601L0 601Z" fill="#811fa7"></path><path d="M0 451L129 494L257 450L386 472L514 507L643 456L771 489L900 459L900 601L771 601L643 601L514 601L386 601L257 601L129 601L0 601Z" fill="#5f1b7b"></path><path d="M0 500L129 530L257 496L386 537L514 522L643 529L771 514L900 522L900 601L771 601L643 601L514 601L386 601L257 601L129 601L0 601Z" fill="#401552"></path><path d="M0 569L129 536L257 536L386 566L514 563L643 544L771 549L900 570L900 601L771 601L643 601L514 601L386 601L257 601L129 601L0 601Z" fill="#230d2c"></path></svg>